<svg role="img" viewBox="0 0 24 24" xmlns="http://www.w3.org/2000/svg" fill="#4285F4"><title>Google Cloud</title><path d="M12 6.47c-2.68 0-4.73 1.9-4.73 4.49s1.81 4.28 4.73 4.28c2.68 0 4.73-1.9 4.73-4.49S14.68 6.47 12 6.47zm0 7.21c-1.73 0-2.82-1.22-2.82-2.72s1.1-2.72 2.82-2.72 2.82 1.22 2.82 2.72-1.09 2.72-2.82 2.72zM21.5 9.17c-.45-1.33-1.2-2.5-2.2-3.4-.95-.9-2.12-1.54-3.4-1.95a7.5 7.5 0 00-7.8 0c-1.28.41-2.45 1.05-3.4 1.95s-1.75 2.07-2.2 3.4a8.2 8.2 0 000 5.66c.45 1.33 1.2 2.5 2.2 3.4s2.12 1.54 3.4 1.95a7.5 7.5 0 007.8 0c1.28-.41 2.45-1.05 3.4-1.95s1.75-2.07 2.2-3.4a8.2 8.2 0 000-5.66zM12 21.95c-5.4 0-9.8-4.4-9.8-9.8s4.4-9.8 9.8-9.8 9.8 4.4 9.8 9.8-4.4 9.8-9.8 9.8zm5.5-2.93l-1.9-1.9c.7-1 1.12-2.21 1.12-3.43s-.42-2.43-1.12-3.43l1.9-1.9a7.3 7.3 0 011.85 4.93c0 1.9-.74 3.65-1.85 4.93zM6.5 19.02l1.9-1.9a4.85 4.85 0 01-1.12-3.43c0-1.22.42-2.43 1.12-3.43l-1.9-1.9a7.3 7.3 0 00-1.85 4.93c0 1.9.74 3.65 1.85 4.93z"/></svg>